<svg xmlns="http://www.w3.org/2000/svg" fill="none" viewBox="0 0 178 191">
  <rect width="23" height="87.998" x="44.612" y="128.064" fill="#000" rx="4" transform="rotate(-89.802 44.612 128.064)"/>
  <rect width="23" height="165.616" x="6" y="190" fill="#000" rx="4" transform="rotate(-89.802 6 190)"/>
  <path fill="#000" d="M97.945 3.537c-4.674-4.699-12.272-4.718-16.97-.044L4.408 79.66C-.29 84.335-.31 91.933 4.364 96.631c4.674 4.699 12.272 4.719 16.97.045l68.06-67.706 67.705 68.06c4.674 4.698 12.272 4.718 16.97.044 4.699-4.674 4.718-12.272.044-16.97L97.945 3.536ZM101 180.03l.438-168-24-.062-.438 168 24 .062Z"/>
</svg>
